<?xml version="1.0" encoding="UTF-8" standalone="no"?>
<!-- Created with Inkscape (http://www.inkscape.org/) -->

<svg
   xmlns:dc="http://purl.org/dc/elements/1.1/"
   xmlns:cc="http://creativecommons.org/ns#"
   xmlns:rdf="http://www.w3.org/1999/02/22-rdf-syntax-ns#"
   xmlns:svg="http://www.w3.org/2000/svg"
   xmlns="http://www.w3.org/2000/svg"
   xmlns:sodipodi="http://sodipodi.sourceforge.net/DTD/sodipodi-0.dtd"
   xmlns:inkscape="http://www.inkscape.org/namespaces/inkscape"
   width="5096"
   height="1265.7336"
   viewBox="0 0 5096 1265.7337"
   id="svg2"
   version="1.1"
   inkscape:version="0.91 r13725"
   sodipodi:docname="SmartHome.svg"
   inkscape:export-filename="D:\Dropbox02\Dropbox\2018\Bases de Datos I\Entregas Proyecto\ExpedienteMedico\FrontEnd\img\icon.png"
   inkscape:export-xdpi="90"
   inkscape:export-ydpi="90">
  <defs
     id="defs4" />
  <sodipodi:namedview
     id="base"
     pagecolor="#ffffff"
     bordercolor="#666666"
     borderopacity="1.0"
     inkscape:pageopacity="0.0"
     inkscape:pageshadow="2"
     inkscape:zoom="0.20525903"
     inkscape:cx="2548"
     inkscape:cy="632.86682"
     inkscape:document-units="px"
     inkscape:current-layer="layer1"
     showgrid="false"
     units="px"
     inkscape:window-width="790"
     inkscape:window-height="413"
     inkscape:window-x="1940"
     inkscape:window-y="30"
     inkscape:window-maximized="0"
     showguides="false"
     inkscape:guide-bbox="true">
    <sodipodi:guide
       position="1024,439.94076"
       orientation="1,0"
       id="guide4171"
       inkscape:label=""
       inkscape:color="rgb(0,0,255)" />
    <sodipodi:guide
       position="1126.4,632.86683"
       orientation="0,1"
       id="guide4173"
       inkscape:label=""
       inkscape:color="rgb(0,0,255)" />
    <sodipodi:guide
       position="100,398.22224"
       orientation="1,0"
       id="guide4175"
       inkscape:label=""
       inkscape:color="rgb(0,0,255)" />
    <sodipodi:guide
       position="1948,413.39261"
       orientation="1,0"
       id="guide4177"
       inkscape:label=""
       inkscape:color="rgb(0,0,255)" />
    <sodipodi:guide
       position="485.45185,1165.7337"
       orientation="0,1"
       id="guide4179"
       inkscape:label=""
       inkscape:color="rgb(0,0,255)" />
    <sodipodi:guide
       position="1127.4089,965.73364"
       orientation="0,1"
       id="guide4181"
       inkscape:label=""
       inkscape:color="rgb(0,0,255)" />
    <sodipodi:guide
       position="537.22167,732.86703"
       orientation="0,1"
       id="guide4191"
       inkscape:label=""
       inkscape:color="rgb(0,0,255)" />
  </sodipodi:namedview>
  <metadata
     id="metadata7">
    <rdf:RDF>
      <cc:Work
         rdf:about="">
        <dc:format>image/svg+xml</dc:format>
        <dc:type
           rdf:resource="http://purl.org/dc/dcmitype/StillImage" />
        <dc:title></dc:title>
      </cc:Work>
    </rdf:RDF>
  </metadata>
  <g
     inkscape:label="Capa 1"
     inkscape:groupmode="layer"
     id="layer1"
     transform="translate(0,213.37146)">
    <g
       id="g4719"
       transform="matrix(2.7868161,0,0,2.7868161,-4309.08,-1915.7436)"
       style="fill:#c83737;fill-opacity:1;stroke:none">
      <path
         style="fill:#c83737;fill-opacity:1;stroke:none"
         d="m 1739.2146,938.99843 c -1.638,-0.90075 -6.7005,-5.25125 -11.25,-9.66778 -4.5496,-4.41651 -13.3345,-12.43652 -19.522,-17.82222 -38.7676,-33.74395 -70.625,-65.55565 -70.625,-70.5236 0,-2.54073 0.5378,-2.60354 22.292,-2.60354 l 22.2921,0 8.3356,-16.96614 c 6.2737,-12.7693 8.8511,-16.8663 10.4196,-16.5625 1.4421,0.27934 4.8095,7.59037 10.9348,23.74106 4.868,12.83559 9.1721,23.65678 9.5647,24.04709 0.3925,0.39031 5.9896,-13.08901 12.4378,-29.95406 10.3755,-27.13661 12.0188,-30.62154 14.2862,-30.29708 2.2466,0.32147 3.7623,4.83155 12.3057,36.61663 5.3589,19.9375 10.1402,37.24111 10.625,38.45248 0.7019,1.7537 3.1737,-0.64733 12.1315,-11.78397 6.1875,-7.69254 11.9933,-14.73052 12.9018,-15.63997 1.3118,-1.31316 11.3901,-1.65354 48.9603,-1.65354 26.0196,0 48.1982,0.34143 49.2857,0.75874 2.6301,1.00925 2.7791,13.61797 0.1915,16.20555 -1.4439,1.44387 -7.2775,1.78571 -30.4737,1.78571 l -28.688,0 -12.9638,12.62361 c -7.1301,6.94299 -25.0575,23.46595 -39.8388,36.7177 -14.7812,13.25175 -28.2523,25.58565 -29.9357,27.40866 -2.3958,2.59449 -9.9481,7.50904 -10.5688,6.87747 -0.066,-0.0674 -1.4606,-0.85954 -3.0985,-1.7603 z m 33.2598,-86.55464 c -0.2699,-0.51562 -5.2204,-24.39006 -11.0011,-53.05431 -5.7807,-28.66425 -10.8715,-51.4455 -11.3127,-50.625 -0.4413,0.82049 -4.2809,12.74181 -8.5326,26.49181 -17.6386,57.04305 -17.5793,56.875 -20.0416,56.875 -1.8932,0 -3.8174,-4.5196 -10.6438,-25 -4.5831,-13.75 -8.7079,-24.98817 -9.1664,-24.97372 -0.4585,0.0145 -6.148,10.38419 -12.6433,23.04385 -8.3846,16.34196 -12.5537,23.21742 -14.375,23.70666 -1.4109,0.37898 -20.4649,0.69676 -42.3421,0.70615 -32.8232,0.0141 -40.0889,-0.29512 -41.5625,-1.76865 -2.5876,-2.58758 -2.4385,-15.1963 0.1915,-16.20555 1.0875,-0.41732 6.4313,-0.75874 11.875,-0.75874 5.4438,0 9.8978,-0.4847 9.8978,-1.0771 0,-0.59241 -1.733,-4.89925 -3.8512,-9.57076 -7.8974,-17.41725 -10.8509,-39.80073 -7.3367,-55.60214 6.5292,-29.35877 31.2612,-54.99287 56.1879,-58.23753 11.7435,-1.52863 34.1889,-1.36897 44.6516,0.31762 10.8482,1.74872 23.6995,8.28797 33.5713,17.08239 l 6.7771,6.03749 6.7771,-6.03749 c 9.8718,-8.79442 22.7231,-15.33367 33.5713,-17.08239 10.5125,-1.69462 32.9824,-1.84488 44.6516,-0.2986 19.3609,2.5655 39.4007,18.73622 49.8969,40.26347 10.839,22.2301 10.1524,50.01256 -1.8647,75.45504 -5.4681,11.57706 -13.8928,24.70365 -16.8814,26.30313 -1.2462,0.66692 -15.6945,1.20444 -32.6311,1.21397 l -30.3947,0.0171 -9.375,11.79418 c -8.3728,10.53335 -12.6033,13.83055 -14.0932,10.9841 z"
         id="path4737"
         inkscape:connector-curvature="0" />
      <path
         style="fill:#c83737;fill-opacity:1;stroke:none"
         d="m 1731.8664,931.72774 c -5.3206,-5.03445 -17.83,-16.39765 -27.7988,-25.25155 -44.7411,-39.7375 -67.5924,-63.09624 -64.8997,-66.34076 1.1463,-1.38118 6.0299,-1.75414 22.9692,-1.75414 l 21.5134,0 7.6344,-16.25 c 4.199,-8.9375 8.1615,-16.25 8.8055,-16.25 2.2361,0 3.7787,3.24524 12.1808,25.625 4.646,12.375 8.6689,22.76496 8.9398,23.0888 0.9381,1.12145 2.8215,-3.22115 13.7397,-31.68106 9.8932,-25.78807 12.7326,-31.33367 14.9221,-29.14418 0.3836,0.38358 5.329,17.74995 10.9898,38.59193 5.6607,20.84198 10.6708,37.89451 11.1335,37.89451 0.4626,0 6.2298,-6.75 12.8159,-15 6.5862,-8.25 12.9099,-15.38234 14.0527,-15.84964 2.5852,-1.05706 93.0095,-1.30892 95.7257,-0.26662 2.8375,1.08887 2.8375,14.89365 0,15.98252 -1.0875,0.41731 -14.7401,0.75874 -30.339,0.75874 l -28.3618,0 -13.7235,13.21538 c -7.5479,7.26846 -23.5672,22.01397 -35.5985,32.76779 -12.0312,10.75384 -26.5024,23.93192 -32.1582,29.28463 -5.6557,5.35271 -10.865,9.7322 -11.5762,9.7322 -0.7111,0 -5.6462,-4.1191 -10.9668,-9.15355 z m 40.9512,-79.92433 c 0,-1.80416 -21.4011,-106.4899 -21.8647,-106.95351 -0.7135,-0.71345 0.5671,-4.60446 -14.2987,43.44666 -6.8982,22.29714 -13.0656,41.06376 -13.7054,41.70358 -0.6399,0.63982 -1.7299,0.81317 -2.4224,0.38521 -0.6924,-0.42796 -5.007,-12.0227 -9.5878,-25.76609 -4.5809,-13.74338 -8.7164,-24.98797 -9.1902,-24.98797 -0.4737,0 -5.9113,10.20404 -12.0836,22.67565 -6.1722,12.4716 -11.9655,23.44035 -12.874,24.375 -1.3262,1.36445 -9.7433,1.69935 -42.7103,1.69935 -22.5821,0 -41.9482,-0.34142 -43.0357,-0.75874 -2.8375,-1.08887 -2.8375,-14.89365 0,-15.98252 1.0875,-0.41732 6.7125,-0.75874 12.5,-0.75874 5.7876,0 10.5228,-0.22881 10.5228,-0.50847 0,-0.27967 -1.7275,-4.3578 -3.8388,-9.06251 -6.5172,-14.5224 -9.003,-25.74013 -8.9587,-40.42902 0.08,-26.37319 11.1912,-48.19963 32.1533,-63.1579 9.8598,-7.03576 15.1274,-9.26204 26.8942,-11.36634 17.1687,-3.07036 40.6151,-1.33453 53.0612,3.92835 7.0894,2.99776 17.3802,9.79903 23.85,15.76273 l 5.5888,5.15156 5.5888,-5.15156 c 6.4698,-5.9637 16.7606,-12.76497 23.85,-15.76273 12.4462,-5.26288 35.8925,-6.99871 53.0612,-3.92835 11.7668,2.1043 17.0344,4.33058 26.8942,11.36634 32.9841,23.537 41.7209,66.18997 21.7704,106.2829 -2.7368,5.5 -7.0716,13.09375 -9.6328,16.875 l -4.6568,6.875 -32.1444,0.625 -32.1444,0.625 -9.1461,11.24068 c -5.0303,6.18237 -10.1122,11.42673 -11.2931,11.65416 -1.1808,0.22741 -2.147,0.18343 -2.147,-0.0977 z"
         id="path4735"
         inkscape:connector-curvature="0" />
      <path
         style="fill:#c83737;fill-opacity:1;stroke:none"
         d="m 1728.0422,928.00125 c -7.3423,-7.08402 -21.2246,-19.84848 -30.8496,-28.36547 -23.1694,-20.5022 -58.4842,-55.80018 -57.822,-57.79447 0.3872,-1.16627 6.2784,-1.75013 22.2991,-2.21002 l 21.7729,-0.625 7.6588,-15.625 c 4.2124,-8.59375 8.4967,-15.79241 9.5207,-15.99702 1.3701,-0.27378 4.2747,6.08898 10.9984,24.09341 5.0251,13.456 9.6757,24.28573 10.3347,24.06608 0.6589,-0.21965 6.3823,-13.87418 12.7187,-30.34342 7.1838,-18.67207 12.218,-30.08105 13.3733,-30.30799 1.4329,-0.28147 4.2101,8.28646 12.2564,37.8125 5.722,20.99704 11.0191,38.14904 11.7713,38.11555 0.7522,-0.0335 6.9022,-7.06473 13.6666,-15.625 l 12.2988,-15.56411 47.2864,0 c 26.0075,0 48.1762,0.34142 49.2637,0.75874 1.4579,0.55945 1.9772,2.49417 1.9772,7.36626 0,4.87209 -0.5193,6.80681 -1.9772,7.36626 -1.0875,0.41731 -14.9601,0.75874 -30.828,0.75874 l -28.8508,0 -13.2345,12.83138 c -7.279,7.05725 -21.672,20.39363 -31.9845,29.63641 -10.3125,9.24276 -24.7573,22.59365 -32.0996,29.66862 -7.3423,7.07498 -13.9912,12.86359 -14.7754,12.86359 -0.7842,0 -7.4331,-5.79601 -14.7754,-12.88004 z m 45.51,-78.19267 c -0.3647,-0.58999 -5.2059,-23.79311 -10.7584,-51.5625 -5.5524,-27.76938 -10.5715,-51.61479 -11.1536,-52.98979 -1.376,-3.25071 -0.3082,-6.19405 -15.4645,42.6287 -9.2622,29.83611 -13.2757,41.1213 -14.6243,41.1213 -1.3021,0 -4.4223,-7.5814 -10.4179,-25.3125 -4.7075,-13.92187 -8.9329,-25.3125 -9.3899,-25.3125 -0.4569,0 -6.3066,10.96875 -12.9992,24.375 l -12.1685,24.375 -43.7542,0 -43.7541,0 0,-7.5 0,-7.5 13.125,0 c 7.2188,0 13.125,-0.50477 13.125,-1.12172 0,-0.61694 -1.627,-4.41382 -3.6156,-8.4375 -12.5878,-25.46976 -13.257,-53.30557 -1.8436,-76.69078 6.019,-12.3326 21.1034,-27.57881 33.0814,-33.43624 29.7359,-14.54138 72.9271,-7.86305 94.1742,14.56142 4.6126,4.8682 6.7947,4.8682 11.4072,0 21.2471,-22.42447 64.4383,-29.1028 94.1743,-14.56142 11.9793,5.8581 27.0629,21.10406 33.0802,33.43624 8.0034,16.4027 10.1969,34.63271 6.3867,53.07896 -2.9727,14.39171 -11.0173,31.99557 -20.1568,44.10854 l -3.0652,4.0625 -31.041,0 -31.0409,0 -4.218,4.6875 c -2.3198,2.57813 -6.7373,7.92188 -9.8164,11.875 -5.3384,6.85351 -7.8086,8.48256 -9.2719,6.11479 z"
         id="path4733"
         inkscape:connector-curvature="0" />
      <path
         style="fill:#c83737;fill-opacity:1;stroke:none"
         d="m 1729.6926,928.66073 c -6.875,-6.70408 -22.0625,-20.72271 -33.75,-31.15254 -29.5207,-26.34399 -56.1945,-53.33985 -55.218,-55.88465 0.6584,-1.71554 3.7339,-1.99225 22.1431,-1.99225 l 21.3786,0 7.4183,-15.625 c 4.0801,-8.59375 8.1392,-15.625 9.0203,-15.625 0.9337,0 5.4393,10.18344 10.803,24.41725 5.1157,13.57542 9.799,24.21799 10.5475,23.96849 0.7404,-0.24682 6.4696,-13.78488 12.7316,-30.08458 6.2619,-16.29971 12.0228,-30.27334 12.802,-31.05252 1.799,-1.79903 0.8688,-4.64587 12.1313,37.12636 11.3365,42.04643 10.529,39.375 11.9018,39.375 0.6137,0 6.7255,-6.95655 13.5816,-15.459 6.8562,-8.50245 13.3933,-15.81495 14.5271,-16.25 2.6387,-1.0126 92.2455,-1.04306 94.8796,-0.0322 1.4647,0.56209 1.9772,2.50596 1.9772,7.5 l 0,6.74126 -30.8172,0 -30.8172,0 -16.9953,16.5625 c -9.3474,9.10937 -26.839,25.36401 -38.8703,36.12144 -12.0312,10.75743 -24.9495,22.71055 -28.7073,26.5625 -3.7578,3.85195 -7.1328,6.9965 -7.5,6.98789 -0.3672,-0.009 -6.2927,-5.50081 -13.1677,-12.2049 z m 43.9082,-79.96694 c -0.3494,-1.20312 -5.2235,-25.25 -10.8315,-53.4375 -5.6079,-28.1875 -10.6658,-52.09375 -11.2399,-53.125 -1.3022,-2.33953 0.3773,-7.1161 -15.3834,43.75 -8.3788,27.04164 -13.5539,41.875 -14.6097,41.875 -1.014,0 -4.7897,-9.46409 -9.9427,-24.92197 -4.5693,-13.70708 -8.835,-25.09685 -9.4794,-25.3106 -0.6444,-0.21375 -6.7966,10.71989 -13.6716,24.29697 l -12.5,24.6856 -43.4375,0.3287 -43.4375,0.3287 0,-6.75746 c 0,-8.17146 0.1862,-8.27494 14.8939,-8.27494 6.0167,0 11.2877,-0.3483 11.7134,-0.77401 0.4257,-0.4257 -1.2075,-4.70878 -3.6293,-9.51793 -10.1546,-20.16423 -12.5117,-44.65927 -6.1924,-64.35119 12.1433,-37.84044 49.2918,-58.82694 90.2565,-50.98909 15.1891,2.90615 30.194,10.76844 42.6454,22.34544 l 4.0625,3.7772 4.0625,-3.7772 c 12.4515,-11.577 27.4563,-19.43929 42.6454,-22.34544 32.7605,-6.26811 63.513,5.6627 80.654,31.29064 16.6088,24.8322 17.5768,56.03123 2.6632,85.83797 -4.942,9.87721 -11.9523,20.91679 -14.3176,22.54697 -0.7329,0.5051 -15.2365,0.92698 -32.2302,0.9375 l -30.8977,0.0191 -9.5513,11.875 c -5.2531,6.53125 -10.0144,11.875 -10.5805,11.875 -0.5661,0 -1.3152,-0.98437 -1.6646,-2.1875 z"
         id="path4731"
         inkscape:connector-curvature="0" />
      <path
         style="fill:#c83737;fill-opacity:1;stroke:none"
         d="m 1737.7503,935.10484 c -2.3692,-2.48955 -16.9639,-15.83862 -32.4327,-29.66464 -28.5735,-25.53907 -65,-61.0138 -65,-63.30167 0,-0.79357 7.8189,-1.25724 21.2007,-1.25724 16.1053,0 21.5767,-0.40246 22.765,-1.67454 0.8603,-0.921 4.6794,-8.09287 8.4868,-15.9375 3.8074,-7.84462 7.4177,-14.26296 8.023,-14.26296 0.6053,0 5.3309,11.12795 10.5012,24.72878 5.3604,14.1007 9.9911,24.53228 10.7745,24.27161 0.7556,-0.25145 6.538,-13.84355 12.8497,-30.20467 6.3117,-16.36112 12.034,-30.30566 12.7163,-30.98787 1.4435,-1.44353 0.8846,-3.23187 13.1642,42.12556 5.0155,18.52589 9.6943,33.87514 10.3972,34.10945 0.7029,0.23431 6.8032,-6.48572 13.5562,-14.93342 6.753,-8.44769 12.8771,-15.7727 13.6092,-16.2778 0.732,-0.5051 23.1279,-0.92698 49.7685,-0.9375 l 48.4375,-0.0191 0,6.875 0,6.875 -30.8007,0 -30.8007,0 -18.2618,17.25549 c -10.044,9.49051 -28.668,26.58506 -41.3868,37.98787 -12.7187,11.40283 -25.0635,22.76285 -27.4327,25.24452 -2.3692,2.48167 -4.6495,4.51212 -5.0673,4.51212 -0.4178,0 -2.698,-2.0369 -5.0673,-4.52645 z m 35.6511,-89.53605 c -8.6638,-45.15287 -21.5063,-105.2691 -22.4588,-105.13017 -1.1044,0.16109 -4.7642,11.30776 -23.6682,72.08653 -2.7562,8.86154 -5.1599,14.58012 -6.0093,14.29698 -0.7786,-0.25955 -5.1542,-11.68679 -9.7235,-25.39387 -4.5693,-13.70708 -8.8234,-24.92197 -9.4534,-24.92197 -0.6301,0 -6.4893,10.52022 -13.0206,23.37826 -6.5312,12.85804 -12.4439,23.94567 -13.1392,24.63917 -0.7861,0.78409 -17.4484,1.39736 -44.0632,1.62173 l -42.7991,0.36084 8e-4,-6.5625 7e-4,-6.5625 13.1642,0 c 9.7533,0 13.3284,-0.4277 13.7977,-1.65067 0.3484,-0.90788 -1.0151,-4.986 -3.0299,-9.0625 -9.2333,-18.68147 -12.3739,-40.56253 -8.3913,-58.46352 6.0175,-27.0477 26.2628,-48.33206 53.8343,-56.59742 10.3035,-3.08877 32.2008,-3.08801 42.5,10e-4 11.0384,3.31123 25.464,11.20982 33.4138,18.29541 3.8428,3.42498 7.6503,6.22724 8.4612,6.22724 0.8109,0 4.6184,-2.80226 8.4612,-6.22723 7.9379,-7.07496 22.3516,-14.97179 33.4138,-18.30646 5.4273,-1.63602 11.4728,-2.2456 21.875,-2.20569 12.3196,0.0473 15.7981,0.54449 24.3273,3.47734 37.8695,13.02167 58.3332,49.83216 50.0354,90.00456 -2.9712,14.38417 -7.4173,24.47041 -17.8287,40.44498 l -4.2771,6.5625 -30.1909,0.0879 c -16.6051,0.0484 -31.1226,0.47018 -32.2613,0.9375 -1.1386,0.46729 -6.0998,5.77151 -11.0247,11.78713 -4.9249,6.01563 -9.4522,10.9375 -10.0606,10.9375 -0.6083,0 -1.4569,-1.82812 -1.8856,-4.0625 z"
         id="path4729"
         inkscape:connector-curvature="0" />
      <path
         style="fill:#c83737;fill-opacity:1;stroke:none"
         d="m 1735.2749,932.62479 c -3.7578,-3.85358 -16.9573,-16.0615 -29.3323,-27.12874 -26.9621,-24.11282 -64.375,-60.69395 -64.375,-62.94385 0,-1.24032 4.9704,-1.69071 21.5625,-1.9539 l 21.5625,-0.34201 7.4822,-15.31844 c 4.1152,-8.42513 7.9653,-15.1574 8.5557,-14.9606 0.5904,0.1968 5.2049,11.22789 10.2545,24.51351 5.0496,13.28563 9.5058,24.48039 9.9027,24.87727 1.5249,1.52492 3.3992,-2.49087 13.8812,-29.7417 12.5574,-32.64636 12.9911,-33.59351 14.2574,-31.13242 0.4987,0.96931 5.3092,18.21551 10.69,38.32488 7.6373,28.54264 10.2157,36.54756 11.7548,36.49438 1.0843,-0.0375 7.7495,-7.34997 14.8114,-16.25 l 12.84,-16.18188 48.7225,0 48.7226,0 0,6.5625 0,6.5625 -30.6624,-0.37484 -30.6623,-0.37484 -16.5375,15.99984 c -9.0956,8.79992 -26.6574,25.08129 -39.0263,36.18084 -12.3688,11.09955 -25.5633,23.33392 -29.3211,27.1875 -3.7578,3.85358 -7.152,7.0065 -7.5427,7.0065 -0.3907,0 -3.7849,-3.15292 -7.5427,-7.0065 z m 28.7857,-136.37628 c -10.9485,-55.04793 -11.8914,-58.97474 -13.7174,-57.13327 -0.6223,0.62758 -7.0539,20.22167 -14.2924,43.54244 -7.2385,23.32076 -13.6378,42.87826 -14.2207,43.46111 -0.5828,0.58285 -4.9503,-10.48215 -9.7055,-24.58889 -5.129,-15.21556 -9.2863,-25.64861 -10.2204,-25.64861 -0.8661,0 -7.205,11.25 -14.0866,25 l -12.5119,25 -43.1191,0 -43.119,0 0,-6.25 0,-6.25 13.6762,0 c 7.6396,0 14.0125,-0.54401 14.438,-1.23249 0.4189,-0.67787 -0.6179,-3.631 -2.304,-6.5625 -8.8856,-15.44827 -13.2835,-37.41835 -10.9004,-54.45352 4.2112,-30.10324 22.4822,-51.98336 51.9652,-62.22992 8.4649,-2.94189 12.0149,-3.4765 23.125,-3.4825 20.4376,-0.011 36.5747,5.96954 53.9431,19.99186 l 9.8069,7.91752 9.8069,-7.91752 c 17.3684,-14.02232 33.5056,-20.00291 53.9431,-19.99186 11.1101,0.006 14.6601,0.54061 23.125,3.4825 30.0179,10.43247 47.9444,32.35823 52.149,63.78285 2.5494,19.05426 -3.905,43.07356 -16.8302,62.63106 l -6.5688,9.93952 -31.8162,0.625 -31.8161,0.625 -8.6609,10.625 c -4.7635,5.84375 -9.3443,10.79025 -10.1796,10.99222 -1.0541,0.25489 -4.697,-15.61351 -11.9092,-51.875 z"
         id="path4727"
         inkscape:connector-curvature="0" />
      <path
         style="fill:#c83737;fill-opacity:1;stroke:none"
         d="m 1737.8176,934.32924 c -2.4062,-2.79974 -16.7454,-16.1115 -31.8648,-29.58169 -15.1195,-13.4702 -35.932,-32.92876 -46.25,-43.24126 l -18.7602,-18.75 21.875,-0.70009 c 12.0313,-0.38505 22.024,-0.80692 22.2061,-0.9375 0.1821,-0.13057 3.5077,-7.00388 7.3902,-15.27401 3.8825,-8.27014 7.586,-14.86096 8.2301,-14.64627 0.644,0.21467 5.2185,11.05639 10.1654,24.09269 5.8334,15.37237 9.676,23.83362 10.9337,24.07582 1.4722,0.28352 4.7407,-6.93957 13.5725,-29.99359 6.3983,-16.70188 11.8287,-30.60142 12.0676,-30.88788 0.9839,-1.17971 2.0162,2.15064 11.0312,35.58977 9.8715,36.61575 11.1333,40.55606 12.9874,40.55606 0.6258,0 6.966,-7.27915 14.0893,-16.17587 l 12.9515,-16.17589 47.0853,-0.0741 c 25.8969,-0.0408 47.975,-0.41555 49.0625,-0.83286 1.6439,-0.63083 1.9772,0.31743 1.9772,5.625 l 0,6.38374 -30.9557,0 -30.9557,0 -13.1068,12.64322 c -7.2087,6.95378 -23.2318,21.70471 -35.6068,32.77987 -12.375,11.07515 -27.2451,24.79194 -33.0446,30.48177 -5.7996,5.68983 -10.5808,10.29753 -10.625,10.23933 -0.044,-0.0581 -2.0491,-2.39651 -4.4554,-5.19624 z m 36.8973,-87.51045 c -0.2884,-0.85937 -5.0853,-24.625 -10.6598,-52.8125 -5.5745,-28.1875 -10.4213,-52.23437 -10.7707,-53.4375 -1.3202,-4.54589 -4.1251,-2.09981 -6.4502,5.625 -9.6962,32.21448 -24.7513,79.6875 -25.2712,79.6875 -0.3486,0 -4.2324,-10.82812 -8.6306,-24.0625 -8.0901,-24.34291 -9.5088,-27.59783 -11.7095,-26.86426 -0.6708,0.22358 -6.9145,11.63294 -13.8749,25.35414 l -12.6554,24.94762 -42.8125,0.32891 -42.8125,0.32892 0,-6.26642 0,-6.26641 14.375,0 c 7.9063,0 14.375,-0.48329 14.375,-1.07396 0,-0.59068 -1.9992,-5.40092 -4.4426,-10.68942 -15.9721,-34.56947 -11.4734,-69.85672 11.8962,-93.31343 9.3729,-9.40776 17.7191,-14.48135 31.9214,-19.40466 8.3364,-2.88987 12.1162,-3.47262 22.7206,-3.50297 7.0392,-0.0201 14.0178,0.59796 15.625,1.3839 1.5974,0.78117 6.6974,2.63041 11.3332,4.10944 9.0993,2.90304 24.3228,12.25159 30.2426,18.57156 4.6126,4.92438 6.7947,4.92438 11.4072,0 5.9198,-6.31997 21.1433,-15.66852 30.2426,-18.57156 4.6358,-1.47903 9.7358,-3.32827 11.3332,-4.10944 1.6072,-0.78594 8.5859,-1.40404 15.625,-1.3839 10.6044,0.0303 14.3842,0.6131 22.7206,3.50297 14.2023,4.92331 22.5485,9.9969 31.9214,19.40466 15.4368,15.49434 21.8516,32.96572 20.9103,56.95181 -0.4381,11.1643 -1.2538,15.8003 -4.3373,24.65289 -3.935,11.29718 -12.6944,27.81942 -17.4944,32.99872 l -2.7556,2.97339 -31.0631,0 -31.063,0 -9.1062,11.25 c -5.0084,6.1875 -9.3558,11.25 -9.6609,11.25 -0.3051,0 -0.7906,-0.70312 -1.0789,-1.5625 z"
         id="path4725"
         inkscape:connector-curvature="0" />
      <path
         style="fill:#c83737;fill-opacity:1;stroke:none"
         d="m 1735.3176,931.81122 c -3.7812,-4.14577 -16.7187,-16.30238 -28.75,-27.01471 -23.1246,-20.58959 -63.75,-59.85843 -63.75,-61.62132 0,-0.57415 9.1941,-1.0439 20.4313,-1.0439 17.9064,0 20.6643,-0.27032 22.3174,-2.1875 1.0374,-1.20312 4.8455,-8.375 8.4626,-15.9375 3.617,-7.5625 6.8168,-13.1875 7.1108,-12.5 0.2939,0.6875 4.6136,11.93461 9.5993,24.99359 5.8961,15.44382 9.7461,23.8748 11.0138,24.11892 1.4855,0.28609 4.742,-6.91872 13.6944,-30.29813 6.46,-16.8704 12.0782,-30.67705 12.485,-30.68143 0.4067,-0.004 4.5678,14.19518 9.2467,31.55455 11.9793,44.4444 11.6546,43.44716 14.1246,43.37508 1.1993,-0.035 7.8358,-7.17429 15.1055,-16.25 l 12.9664,-16.18758 46.6189,0 c 25.6403,0 47.5086,-0.34142 48.5961,-0.75874 1.6357,-0.62769 1.9772,0.28989 1.9772,5.3125 l 0,6.07124 -31.1148,0 -31.1148,0 -16.0727,15.6279 c -8.84,8.59535 -26.1977,24.68974 -38.5727,35.76531 -12.375,11.07558 -25.7742,23.58989 -29.776,27.8096 -4.0018,4.2197 -7.3768,7.60866 -7.5,7.53102 -0.1233,-0.0776 -3.3177,-3.53315 -7.099,-7.6789 z m 39.9393,-84.99243 c -0.033,-0.17187 -4.9818,-24.77865 -10.9964,-54.68172 -12.6346,-62.81607 -12.6492,-62.84925 -18.8261,-42.89425 -2.0878,6.74491 -8.1713,26.46039 -13.5189,43.81219 -5.3476,17.35179 -10.0147,31.55492 -10.3713,31.56251 -0.3567,0.007 -4.3359,-11.0956 -8.8428,-24.67373 -6.8709,-20.70052 -8.583,-24.6875 -10.6015,-24.6875 -1.8731,0 -5.1811,5.47745 -14.9073,24.68356 l -12.5,24.68357 -40.8353,0.004 c -22.4594,0.003 -41.725,0.34537 -42.8125,0.76268 -1.6356,0.62765 -1.9774,-0.2902 -1.9786,-5.3125 l 0,-6.07105 13.1721,0.4276 c 17.6801,0.57393 17.9007,0.3374 11.8253,-12.67685 -6.1144,-13.09742 -8.6338,-22.584 -9.528,-35.87575 -1.6597,-24.67074 9.0782,-49.29233 27.6584,-63.41953 7.9841,-6.07059 19.6813,-11.9301 26.875,-13.46256 2.4063,-0.51259 4.7567,-1.5327 5.2233,-2.2669 1.0516,-1.65475 29.6616,-1.73363 30.8352,-0.085 0.4491,0.6308 4.7793,2.39929 9.6226,3.92997 10.5279,3.32721 21.0986,9.48223 30.8814,17.98134 l 7.1875,6.24438 7.1875,-6.24438 c 9.7828,-8.49911 20.3535,-14.65413 30.8814,-17.98134 4.8434,-1.53068 9.1735,-3.29917 9.6226,-3.92997 1.1736,-1.64861 29.7836,-1.56973 30.8352,0.085 0.4666,0.7342 2.8171,1.75431 5.2233,2.2669 7.1937,1.53246 18.8909,7.39197 26.875,13.46256 23.1839,17.62755 33.2377,50.40735 25.0104,81.54453 -2.3565,8.91861 -11.3593,27.85966 -16.7841,35.3125 l -3.867,5.3125 -30.8423,0 -30.8423,0 -5.3272,5.72051 c -2.9299,3.14628 -7.188,8.19138 -9.4623,11.21134 -3.4836,4.62569 -5.8031,6.63367 -6.0709,5.25565 z"
         id="path4723"
         inkscape:connector-curvature="0" />
      <path
         style="fill:#c83737;fill-opacity:1;stroke:none"
         d="m 1735.8956,930.7599 c -3.4116,-3.50426 -16.0467,-15.1486 -28.078,-25.87632 -12.0312,-10.72771 -31.4375,-28.94532 -43.125,-40.48354 l -21.25,-20.97859 18.75,-0.0371 c 10.3125,-0.0205 19.9622,-0.36236 21.4438,-0.75984 1.9726,-0.5292 4.4594,-4.54078 9.288,-14.98294 3.6268,-7.84315 6.9788,-14.26026 7.449,-14.26026 0.4701,0 4.5975,9.98438 9.1719,22.1875 9.6818,25.82776 9.7352,25.9375 12.6281,25.9375 1.7315,0 4.6511,-6.40994 13.5221,-29.6875 6.2226,-16.32812 11.6559,-29.6875 12.074,-29.6875 0.4181,0 5.2406,16.45313 10.7167,36.5625 9.1241,33.50613 10.1813,36.5625 12.6465,36.5625 1.9467,0 6.2107,-4.40432 15.4296,-15.9375 l 12.7395,-15.9375 47.3829,0 c 30.7553,0 47.3829,-0.43865 47.3829,-1.25 0,-0.6875 0.5625,-1.25 1.25,-1.25 0.6875,0 1.2505,2.67188 1.2511,5.9375 l 0,5.9375 -31.38,-0.37439 -31.3801,-0.3744 -17.0585,16.63259 c -9.3822,9.14793 -26.9023,25.43366 -38.9336,36.19051 -12.0312,10.75685 -24.6663,22.42504 -28.078,25.9293 -3.4117,3.50427 -6.5266,6.37139 -6.922,6.37139 -0.3954,0 -3.5103,-2.86712 -6.922,-6.37139 z m 28.7847,-139.94018 c -10.3276,-51.69671 -11.1552,-55.03872 -13.543,-54.6875 -2.1893,0.32201 -4.3804,6.33035 -15.744,43.17334 -7.2604,23.5396 -13.4843,42.80522 -13.8309,42.81249 -0.3467,0.007 -4.2842,-10.81488 -8.7501,-24.04926 -6.6865,-19.81539 -8.561,-24.12525 -10.6197,-24.41801 -2.1019,-0.29891 -4.5395,3.73165 -15.3086,25.3125 l -12.8085,25.66801 -40.5267,0 c -22.2897,0 -41.4165,0.34142 -42.504,0.75874 -1.6356,0.62764 -1.9775,-0.29026 -1.9789,-5.3125 l 0,-6.07124 15.0017,0.41719 c 17.6362,0.49045 17.2564,0.95024 10.6165,-12.85466 -8.5646,-17.80657 -11.6331,-39.84277 -7.9634,-57.1885 5.731,-27.08891 28.0758,-49.40721 55.4736,-55.40768 4.5734,-1.00163 6.2806,-1.75309 4.375,-1.92575 -1.7187,-0.15573 0.25,-0.66367 4.375,-1.12875 9.3072,-1.04936 24.8231,-0.0847 21.2275,1.31971 -2.1387,0.8354 -2.0124,0.97974 0.924,1.05558 4.7391,0.12241 21.8092,6.51738 28.517,10.68332 3.0698,1.90654 8.7715,6.20876 12.6703,9.56049 3.8989,3.35172 7.7401,6.09405 8.5362,6.09405 0.7961,0 4.6374,-2.74233 8.5362,-6.09405 3.8988,-3.35173 9.6005,-7.65395 12.6703,-9.56049 6.7078,-4.16594 23.7779,-10.56091 28.517,-10.68332 2.9364,-0.0758 3.0627,-0.22018 0.924,-1.05558 -3.5955,-1.40445 11.9203,-2.36907 21.2275,-1.31971 4.125,0.46508 6.0938,0.97302 4.375,1.12875 -1.9056,0.17266 -0.1984,0.92412 4.375,1.92575 27.3978,6.00047 49.7426,28.31877 55.4736,55.40768 2.2134,10.46202 1.7259,27.33217 -1.1101,38.42104 -2.8649,11.20151 -10.3609,27.17197 -16.8468,35.89243 l -4.416,5.9375 -31.1678,0 -31.1677,0 -8.5076,10.54274 c -4.6792,5.79851 -8.8479,10.57976 -9.2638,10.625 -0.416,0.0453 -5.7062,-24.69545 -11.7561,-54.97931 z"
         id="path4721"
         inkscape:connector-curvature="0" />
    </g>
    <text
       xml:space="preserve"
       style="font-style:normal;font-weight:normal;font-size:698.94024658px;line-height:100%;font-family:sans-serif;text-align:start;letter-spacing:0px;word-spacing:0px;text-anchor:start;fill:#000000;fill-opacity:1;stroke:none;stroke-width:1px;stroke-linecap:butt;stroke-linejoin:miter;stroke-opacity:1"
       x="1178.9775"
       y="569.21503"
       id="text4183"
       sodipodi:linespacing="100%"><tspan
         sodipodi:role="line"
         x="1178.9775"
         y="569.21503"
         style="font-style:normal;font-variant:normal;font-weight:bold;font-stretch:normal;font-size:698.94024658px;line-height:100%;font-family:Bariol;-inkscape-font-specification:'Bariol Bold';text-align:start;text-anchor:start"
         id="tspan4187">Hope Medics </tspan></text>
  </g>
</svg>
